<?xml version="1.0" encoding="UTF-8"?>
<svg id="Layer_2" data-name="Layer 2" xmlns="http://www.w3.org/2000/svg" viewBox="0 0 141.73 39.6">
  <defs>
    <style>
      .cls-1 {
        fill: #0fa99c;
      }

      .cls-1, .cls-2 {
        stroke-width: 0px;
      }
    </style>
  </defs>
  <g id="Layer_1-2" data-name="Layer 1">
    <g>
      <polygon class="cls-1" points="141.73 17.39 134.45 17.39 134.45 10.75 129.15 10.75 129.15 17.39 121.86 17.39 121.86 22.22 129.15 22.22 129.15 28.86 134.45 28.86 134.45 22.22 141.73 22.22 141.73 17.39"/>
      <g>
        <polygon class="cls-2" points="121.74 0 106.5 0 99.72 8.08 107.34 17.16 121.74 0"/>
        <polygon class="cls-2" points="88.51 39.6 97.49 28.88 105.12 19.79 97.49 10.7 88.52 0 73.26 0 89.88 19.81 73.28 39.59 88.51 39.6"/>
        <polygon class="cls-2" points="99.7 31.5 106.49 39.59 121.74 39.59 107.33 22.41 99.7 31.5"/>
        <polygon class="cls-2" points="42.74 0 42.75 18.88 42.74 18.88 42.74 39.59 54.61 39.59 54.61 0 42.74 0"/>
        <polygon class="cls-2" points="58 12.12 58 25.22 57.99 25.22 57.99 39.59 69.87 39.59 69.87 12.12 58 12.12"/>
        <polygon class="cls-2" points="57.99 0 58.01 4.17 57.99 4.17 57.99 8.75 69.87 8.75 69.87 0 57.99 0"/>
        <polygon class="cls-2" points="39.35 0 27.3 14.36 15.26 0 0 0 0 39.59 11.88 39.59 11.88 14.16 11.89 14.15 19.68 23.45 27.3 32.54 39.35 18.18 39.35 0"/>
      </g>
    </g>
  </g>
</svg>