<?xml version="1.0" encoding="UTF-8"?>
<svg id="Layer_2" data-name="Layer 2" xmlns="http://www.w3.org/2000/svg" viewBox="0 0 283.46 283.58">
  <defs>
    <style>
      .cls-1 {
        fill: #fff;
        stroke-width: 0px;
      }
    </style>
  </defs>
  <g id="Layer_1-2" data-name="Layer 1">
    <path class="cls-1" d="m141.73,18.84c-109.53-.04-164.4,132.37-86.97,209.83,48,48.01,125.83,48.02,173.84.02,23.06-23.05,36.01-54.32,36.01-86.93,0-67.87-55-122.9-122.89-122.92h0Zm-69.61,61.31c5.92-30.7,46-38.92,63.52-13.03,17.52,25.88-4.99,60.05-35.68,54.14-19.03-3.66-31.5-22.05-27.84-41.08,0,0,0-.02,0-.02Zm51.07,106.2c-5.96,30.69-46.05,38.85-63.53,12.95-17.49-25.9,5.05-60.03,35.74-54.11,19.03,3.68,31.48,22.08,27.8,41.11,0,.01,0,.03,0,.04Zm14.89-28.42c-13.61-2.63-17.27-20.41-5.8-28.2,11.46-7.8,26.66,2.13,24.1,15.76-1.59,8.47-9.74,14.05-18.2,12.46-.03,0-.06-.01-.09-.02h-.01Zm73.24,45.35c-5.92,30.7-46,38.91-63.52,13.03-17.53-25.89,4.97-60.05,35.68-54.15,19.03,3.66,31.5,22.05,27.85,41.08,0,.01,0,.03,0,.04Zm-23.24-65.01c-30.7-5.92-38.91-46.04-13.02-63.57,25.88-17.52,60.04,4.99,54.14,35.68-3.63,19.04-22.01,31.53-41.05,27.9-.02,0-.05,0-.07-.01h0Zm-27.57,136.62l26.75,7.21c23.42,6.22,47.45-7.73,53.68-31.15l7.56-28.38c-21.29,28.36-52.92,47.16-88.01,52.32h.01ZM250.82,42.53l-27.92-7.43c28.5,21.92,47.03,54.35,51.45,90.04l7.68-29.06c6.12-23.4-7.85-47.35-31.23-53.54h.02ZM7.87,163.17l-6.39,24.1c-6.22,23.42,7.73,47.45,31.15,53.68l24.9,6.64c-26.58-20.9-44.31-51.04-49.66-84.43h.01ZM122.31,8.3l-26.08-6.81c-23.43-6.24-47.48,7.69-53.72,31.12,0,.01,0,.03-.01.04l-6.51,24.6C57.47,30.52,88.35,13.01,122.32,8.3h-.01Z"/>
  </g>
</svg>