<?xml version="1.0" encoding="UTF-8"?>
<svg id="Layer_2" data-name="Layer 2" xmlns="http://www.w3.org/2000/svg" viewBox="0 0 283.46 283.46">
  <defs>
    <style>
      .cls-1 {
        fill: #fff;
        stroke-width: 0px;
      }
    </style>
  </defs>
  <g id="Layer_1-2" data-name="Layer 1">
    <path class="cls-1" d="m199.28,98.19c-2.49-6.44-7.58-11.53-14.03-14.01-4.39-1.63-9.02-2.48-13.7-2.54-7.78-.35-10.11-.44-29.82-.44s-22.04.09-29.82.44c-4.68.05-9.32.91-13.72,2.54-6.44,2.49-11.53,7.58-14.01,14.03-1.63,4.39-2.48,9.02-2.54,13.7-.35,7.78-.44,10.11-.44,29.82s.09,22.04.44,29.82c.05,4.68.91,9.32,2.54,13.72,2.49,6.44,7.58,11.53,14.03,14.01,4.39,1.63,9.02,2.48,13.7,2.54,7.78.35,10.11.43,29.82.43s22.04-.07,29.82-.44c4.68-.05,9.32-.9,13.72-2.52,6.44-2.49,11.53-7.58,14.01-14.03,1.63-4.39,2.48-9.02,2.54-13.7.35-7.78.43-10.11.43-29.82s-.07-22.04-.44-29.82c-.05-4.68-.9-9.32-2.52-13.72h0Zm-57.55,81.45c-20.94,0-37.91-16.97-37.91-37.91s16.97-37.91,37.91-37.91,37.91,16.97,37.91,37.91h0c0,20.94-16.97,37.91-37.91,37.91Zm39.4-68.46c-4.89,0-8.86-3.97-8.86-8.86s3.97-8.86,8.86-8.86c4.89,0,8.86,3.97,8.86,8.86s-3.97,8.86-8.86,8.86h0Zm-14.79,30.55c0,13.59-11.02,24.61-24.61,24.61s-24.61-11.02-24.61-24.61,11.02-24.61,24.61-24.61,24.61,11.02,24.61,24.61h0ZM141.73,0C63.46,0,0,63.46,0,141.73s63.46,141.73,141.73,141.73,141.73-63.46,141.73-141.73S220.01,0,141.73,0h0Zm73.38,172.16c-.13,6.13-1.29,12.19-3.44,17.92-3.83,9.91-11.67,17.75-21.58,21.58-5.73,2.15-11.79,3.31-17.91,3.44-7.88.35-10.39.44-30.44.44s-22.56-.09-30.44-.44c-6.12-.13-12.18-1.29-17.91-3.44-9.91-3.83-17.75-11.67-21.58-21.58-2.15-5.73-3.31-11.79-3.44-17.91-.35-7.88-.44-10.39-.44-30.44s.09-22.56.44-30.44c.12-6.12,1.28-12.18,3.43-17.91,3.83-9.92,11.68-17.77,21.6-21.6,5.73-2.15,11.79-3.3,17.91-3.43,7.88-.35,10.39-.44,30.44-.44s22.56.09,30.44.44c6.12.12,12.18,1.28,17.91,3.43,9.92,3.84,17.75,11.68,21.58,21.6,2.15,5.73,3.31,11.79,3.44,17.91.35,7.88.44,10.39.44,30.44s-.09,22.56-.44,30.44h0Z"/>
  </g>
</svg>