<?xml version="1.0" encoding="UTF-8"?>
<svg id="Layer_2" data-name="Layer 2" xmlns="http://www.w3.org/2000/svg" viewBox="0 0 283.46 283.46">
  <defs>
    <style>
      .cls-1 {
        fill: #fff;
        stroke-width: 0px;
      }
    </style>
  </defs>
  <g id="Layer_1-2" data-name="Layer 1">
    <path class="cls-1" d="m257.82,0H25.64C11.48,0,0,11.48,0,25.64v232.18c0,14.16,11.48,25.64,25.64,25.64h232.18c14.16,0,25.64-11.48,25.64-25.64V25.64c0-14.16-11.48-25.64-25.64-25.64ZM87.72,244.76c0,4.12-3.34,7.46-7.46,7.46h-31.76c-4.12,0-7.46-3.34-7.46-7.46V111.61c0-4.12,3.34-7.46,7.46-7.46h31.76c4.12,0,7.46,3.34,7.46,7.46v133.15Zm-23.34-153.17c-16.67,0-30.18-13.51-30.18-30.18s13.51-30.18,30.18-30.18,30.18,13.51,30.18,30.18-13.51,30.18-30.18,30.18Zm189.34,153.77c0,3.79-3.07,6.86-6.86,6.86h-34.09c-3.79,0-6.86-3.07-6.86-6.86v-62.46c0-9.32,2.73-40.83-24.35-40.83-21.01,0-25.27,21.57-26.12,31.25v72.04c0,3.79-3.07,6.86-6.86,6.86h-32.97c-3.79,0-6.86-3.07-6.86-6.86V111.01c0-3.79,3.07-6.86,6.86-6.86h32.97c3.79,0,6.86,3.07,6.86,6.86v11.62c7.79-11.69,19.37-20.71,44.01-20.71,54.58,0,54.27,50.99,54.27,79.01v64.44h0Z"/>
  </g>
</svg>