<?xml version="1.0" encoding="UTF-8"?>
<svg id="Layer_2" data-name="Layer 2" xmlns="http://www.w3.org/2000/svg" viewBox="0 0 283.46 283.46">
  <defs>
    <style>
      .cls-1 {
        fill: #fff;
        stroke-width: 0px;
      }
    </style>
  </defs>
  <g id="Layer_1-2" data-name="Layer 1">
    <path class="cls-1" d="m141.73,0c78.28,0,141.73,63.46,141.73,141.73s-63.46,141.73-141.73,141.73S0,220.01,0,141.73,63.46,0,141.73,0Zm62.95,85.04c-5.4.1-13.68,2.94-53.55,19.31-13.96,5.73-41.87,17.6-83.72,35.6-6.8,2.67-10.36,5.28-10.68,7.83-.62,4.9,6.52,6.43,15.51,9.31,7.33,2.35,17.19,5.1,22.32,5.21,4.65.1,9.84-1.79,15.57-5.68,39.1-26.06,59.29-39.23,60.55-39.51.89-.2,2.13-.45,2.97.28s.76,2.13.67,2.51c-.71,2.99-37.44,35.98-39.56,38.15l-1.01,1.02c-7.79,7.69-15.66,12.72-2.08,21.55,12.26,7.98,19.4,13.07,32.04,21.25,8.07,5.23,14.41,11.42,22.74,10.66,3.84-.35,7.8-3.91,9.81-14.53,4.76-25.1,14.1-79.49,16.26-101.9.19-1.96-.05-4.48-.24-5.58s-.59-2.67-2.04-3.84c-1.72-1.38-4.38-1.67-5.56-1.65Z"/>
  </g>
</svg>