<?xml version="1.0" encoding="UTF-8"?>
<svg id="Layer_2" data-name="Layer 2" xmlns="http://www.w3.org/2000/svg" viewBox="0 0 283.46 198.36">
  <defs>
    <style>
      .cls-1 {
        fill: #fff;
        stroke-width: 0px;
      }
    </style>
  </defs>
  <g id="Layer_1-2" data-name="Layer 1">
    <path class="cls-1" d="m0,104.91c0-3.91,0-7.82,0-11.74.07-.36.18-.72.2-1.08.1-1.99.17-3.98.25-5.97.25-5.82.43-11.65.76-17.47.41-7.07,1.01-14.13,1.9-21.16.66-5.16,1.45-10.3,2.7-15.35,2.51-10.17,8.31-17.88,17.41-23.07,4.33-2.47,9.06-3.67,13.94-4.44,5.72-.91,11.48-1.5,17.26-1.93,7.21-.53,14.43-.96,21.65-1.33,5.93-.31,11.87-.53,17.81-.67C105.46.41,117.05.08,128.64.02c14.21-.07,28.42,0,42.62.23,11.77.19,23.53.66,35.3,1.06,4.53.15,9.07.38,13.59.71,6.62.49,13.24,1.03,19.84,1.72,3.77.4,7.54.97,11.24,1.79,12.94,2.86,23.14,12.8,26.45,25.6,2.16,8.35,3.14,16.89,3.93,25.45.41,4.41.72,8.83.96,13.25.33,6.01.66,12.02.77,18.03.18,9.96.2,19.93-.21,29.89-.19,4.5-.4,9-.69,13.49-.45,6.77-1.02,13.54-1.91,20.27-.66,5.05-1.4,10.09-2.72,15.01-3.37,12.55-11.22,21.03-23.5,25.3-4.13,1.44-8.47,2.01-12.79,2.47-6.53.69-13.07,1.28-19.61,1.76-5.44.41-10.9.68-16.36.88-9.85.36-19.69.68-29.54.92-8.3.2-16.6.25-24.91.37-.47,0-.95.09-1.42.14h-15.5c-.47-.05-.95-.13-1.42-.13-5.5-.07-10.99-.07-16.49-.21-11.73-.29-23.45-.63-35.18-1-5.23-.17-10.47-.39-15.69-.75-6.99-.49-13.97-1.04-20.94-1.74-3.84-.39-7.7-.92-11.46-1.78-12.23-2.79-20.78-10.08-25.6-21.66-1.7-4.07-2.41-8.42-3.16-12.75-1.06-6.18-1.82-12.41-2.25-18.66-.5-7.17-.92-14.35-1.31-21.53-.22-3.94-.3-7.89-.47-11.83-.02-.47-.14-.94-.21-1.4Zm187.11-5.74c-1.65-1.25-72.75-42.18-73.51-42.35-.22,1.4-.14,83.82.11,84.74,24.44-14.11,48.86-28.21,73.4-42.38Z"/>
  </g>
</svg>